<svg width="70" height="38" viewBox="0 0 70 38" fill="none" xmlns="http://www.w3.org/2000/svg">
<path d="M63.6557 3.81618C62.8751 2.88884 61.9317 2.28288 60.9275 2.05473C60.8897 2.04614 60.8519 2.03756 60.8141 2.02897C60.3751 1.92998 60.0561 1.4608 60.0561 0.912369C60.0561 0.408468 59.7237 0 59.3136 0C58.746 0 58.1804 0.08574 57.6298 0.255138L55.306 0.97002C40.879 -1.31961 31.3221 1.03614 28.2326 2.00567C27.5948 2.20561 26.9709 2.4816 26.3649 2.82874L15.2896 9.17534C14.6078 9.56541 13.9031 9.86471 13.1824 10.0708L8.2641 11.4704C4.61159 12.5093 1.58796 16.1488 0.25134 21.1129L0.00976932 25.9471C-0.146952 29.102 1.60194 31.7847 3.817 31.7847H6.03606C6.93147 35.3836 9.65563 38 12.8779 38C16.0992 38 18.8233 35.3836 19.7187 31.7847H50.8394C51.7349 35.3836 54.459 38 57.6803 38C60.9016 38 63.6257 35.3836 64.5221 31.7847H65.5393C67.4909 31.7847 69.129 29.6821 69.3346 26.91C69.6321 22.8891 69.7558 17.2122 68.6258 13.1938C67.3772 8.75338 65.1062 5.5358 63.6557 3.81618ZM3.4237 25.5386C2.92758 25.5386 2.5253 24.7338 2.5253 23.7404C2.5253 22.7467 2.92758 21.9409 3.4237 21.9409C3.91982 21.9409 4.32211 22.7467 4.32211 23.7404C4.32211 24.7338 3.91992 25.5386 3.4237 25.5386ZM4.54771 19.9892C3.98171 20.1806 3.49957 19.4653 3.75212 18.8141C4.21929 17.6095 5.05181 16.0493 6.38444 15.3476C8.02053 14.4865 9.36215 14.8348 10.015 15.1183C10.2975 15.2421 10.4832 15.5795 10.4652 15.9475C10.4323 16.6405 10.1897 17.7518 9.04671 18.2916C7.94267 18.8141 5.88832 19.5354 4.54771 19.9892ZM17.0365 31.7847C16.2679 33.6516 14.6927 34.9334 12.8779 34.9334C11.0621 34.9334 9.48693 33.6516 8.71829 31.7847C8.39886 31.0105 8.21918 30.1348 8.21918 29.2087C8.21918 26.0526 10.3085 23.484 12.8779 23.484C15.4463 23.484 17.5356 26.0525 17.5356 29.2087C17.5356 30.1347 17.3559 31.0105 17.0365 31.7847ZM24.148 11.3893C24.0292 11.745 23.7497 11.9744 23.4362 11.9744H16.3079C16.3199 11.9669 16.3319 11.9609 16.3438 11.9548L25.7741 6.55145L24.148 11.3893ZM37.3464 16.9632H34.5843C34.1162 16.9632 33.7358 16.4958 33.7358 15.9206C33.7358 15.6322 33.8307 15.3723 33.9844 15.1834C34.1381 14.9945 34.3498 14.878 34.5843 14.878H37.3464C37.8146 14.878 38.1949 15.3441 38.1949 15.9206C38.1949 16.4958 37.8146 16.9632 37.3464 16.9632ZM38.8489 11.6849L30.6015 11.9094C30.341 11.9192 30.1054 11.7695 29.9547 11.5083C29.8049 11.2457 29.772 10.9243 29.8648 10.6251L31.8633 4.19999C33.8657 3.77312 36.6288 3.33509 40.0657 3.15367L38.8489 11.6849ZM47.7331 11.4445L40.5788 11.6383L41.7976 3.08743C42.3217 3.07394 42.8567 3.06658 43.4068 3.06658C45.1317 3.06658 46.8846 3.13405 48.6594 3.26775C48.3339 6.30735 47.9756 9.48801 47.7331 11.4445ZM50.3553 3.41617C51.8377 3.56214 53.334 3.7535 54.8423 3.99036L57.9648 8.19158C58.1305 8.4147 58.1994 8.7129 58.1525 9.00974C58.1055 9.30536 57.9528 9.55069 57.7312 9.68305L55.2526 11.1538C55.1528 11.2139 55.046 11.2458 54.9352 11.2484L49.4549 11.3968C49.7174 9.27592 50.0558 6.2129 50.3553 3.41617ZM50.8894 16.9632C50.4202 16.9632 50.0409 16.4958 50.0409 15.9206C50.0409 15.6322 50.1357 15.3723 50.2894 15.1834C50.4432 14.9945 50.6548 14.878 50.8894 14.878H53.6505C54.1196 14.878 54.499 15.3441 54.499 15.9206C54.499 16.4958 54.1196 16.9632 53.6505 16.9632H50.8894ZM61.84 31.7847C61.0714 33.6516 59.4962 34.9334 57.6804 34.9334C55.8656 34.9334 54.2904 33.6516 53.5218 31.7847C53.2024 31.0105 53.0227 30.1348 53.0227 29.2087C53.0227 26.0526 55.112 23.484 57.6804 23.484C60.2498 23.484 62.3391 26.0525 62.3391 29.2087C62.3391 30.1347 62.1593 31.0105 61.84 31.7847ZM67.0028 22.1505C66.7583 22.364 66.4269 22.3493 66.1923 22.1199C65.6502 21.5887 64.6989 20.3768 64.4274 18.2155C64.2058 16.4528 64.8417 14.7601 65.4266 13.6353C65.7421 13.0268 66.4907 13.1495 66.6584 13.8413C67.0557 15.4801 67.6447 18.0021 67.8693 19.4299C68.1019 20.9081 67.4629 21.7494 67.0028 22.1505Z" fill="white"/>
<path d="M12.6962 26C11.2069 26 10 27.483 10 29.3119C10 30.352 10.3903 31.2807 11.0022 31.8878C11.4644 32.3491 12.0543 32.6238 12.6962 32.6238C13.3381 32.6238 13.927 32.3491 14.3892 31.8878C15.0011 31.2807 15.3914 30.352 15.3914 29.3119C15.3914 27.4829 14.1846 26 12.6962 26Z" fill="#6F7579"/>
<path d="M57.4986 26C56.0102 26 54.8033 27.483 54.8033 29.3119C54.8033 30.352 55.1936 31.2807 55.8056 31.8878C56.2677 32.3491 56.8567 32.6238 57.4986 32.6238C58.1404 32.6238 58.7304 32.3491 59.1925 31.8878C59.8035 31.2807 60.1938 30.352 60.1938 29.3119C60.1938 27.4829 58.988 26 57.4986 26Z" fill="#6F7579"/>
</svg>
