<svg width="31" height="28" viewBox="0 0 31 28" fill="none" xmlns="http://www.w3.org/2000/svg">
<path d="M7.40321 5.95279C7.35798 5.53052 7.31274 5.10823 7.26751 4.68595C7.20719 4.08659 7.19213 3.48722 7.05643 2.90148C6.70964 1.37582 5.3677 0.286061 3.64883 0.0544879C3.60359 0.0544879 0 0 0 0V2.19314C0.21109 2.19314 0.392023 2.19314 0.588028 2.19314C1.38715 2.19314 2.18628 2.19314 2.9854 2.19314C3.99562 2.19314 4.64396 2.71077 4.74951 3.60982C4.94553 5.59861 5.12645 7.58742 5.32247 9.57622C5.54864 11.9056 5.78989 14.2213 6.03113 16.5507C6.22713 18.4713 6.42315 20.3784 6.589 22.2992C6.73979 24.0427 7.87064 25.3096 9.74026 25.7727C9.84583 25.7999 9.96643 25.8953 10.0117 25.9771C10.6751 27.2576 11.7758 27.9795 13.3288 27.9931C14.8667 28.0068 15.9976 27.3256 16.676 26.0724C16.7666 25.909 16.857 25.868 17.0379 25.868C17.7767 25.8817 18.5155 25.8817 19.2544 25.868C19.4654 25.868 19.5559 25.9225 19.6615 26.0997C20.8074 28.3201 24.1547 28.6742 25.7982 26.7399C26.7179 25.6501 26.8537 24.4378 26.1601 23.2254C25.4665 22.0267 24.3055 21.4001 22.7977 21.4682C21.32 21.5227 20.2495 22.2037 19.6313 23.4298C19.5258 23.6478 19.4052 23.7159 19.1489 23.7021C18.4553 23.6886 17.7617 23.7021 17.0529 23.6886C16.9475 23.6886 16.8118 23.6068 16.7666 23.5252C16.1182 22.231 15.0326 21.4955 13.4494 21.4682C11.8512 21.4409 10.7203 22.1629 10.0268 23.4569C10.0117 23.4706 9.9966 23.4842 9.96643 23.5252C9.42364 23.2799 9.107 22.8848 9.0467 22.3536C8.92607 21.3593 8.8507 20.3648 8.74515 19.3296C8.74515 19.3296 17.6259 19.3296 21.8628 19.3296C24.4712 19.3296 26.4766 18.0491 27.321 15.8151C28.5122 12.6548 29.6882 9.48087 30.8794 6.32059C30.9096 6.23886 31 5.98003 31 5.98003L7.40321 5.95279ZM22.9333 23.6341C23.5967 23.6341 24.1547 24.1245 24.1547 24.7239C24.1547 25.3096 23.6119 25.7999 22.9635 25.8136C22.3001 25.8272 21.7423 25.3368 21.7423 24.7239C21.7271 24.1245 22.2549 23.6341 22.9333 23.6341ZM13.3589 23.6341C14.0224 23.6341 14.5802 24.1108 14.5802 24.7101C14.5953 25.3096 14.0374 25.8136 13.374 25.8136C12.7106 25.8272 12.1527 25.3368 12.1527 24.7239C12.1527 24.1245 12.6805 23.6478 13.3589 23.6341ZM26.6576 10.775C26.1147 12.2189 25.5719 13.6764 25.0292 15.1203C24.5466 16.4008 23.4309 17.1227 21.9382 17.1227C17.5808 17.1227 13.2233 17.1227 8.85068 17.1227H8.51896C8.21741 14.1396 7.91587 11.17 7.62939 8.17317H27.6376C27.2909 9.05859 26.9742 9.91677 26.6576 10.775Z" fill="#005288"/>
</svg>
