<svg width="18" height="17" viewBox="0 0 18 17" fill="none" xmlns="http://www.w3.org/2000/svg">
<path d="M4.98494 3.98208C4.96054 3.74963 4.93614 3.51717 4.91174 3.28471C4.87921 2.95478 4.87109 2.62484 4.79789 2.3024C4.61084 1.46256 3.88702 0.862671 2.9599 0.735195C2.9355 0.735195 0.991791 0.7052 0.991791 0.7052V1.91248C1.10565 1.91248 1.20324 1.91248 1.30896 1.91248C1.73999 1.91248 2.17103 1.91248 2.60206 1.91248C3.14695 1.91248 3.49665 2.19742 3.55358 2.69233C3.65931 3.78712 3.7569 4.88192 3.86263 5.97671C3.98462 7.25897 4.11474 8.53373 4.24487 9.81598C4.35059 10.8733 4.45631 11.9231 4.54577 12.9804C4.6271 13.9402 5.23706 14.6376 6.2455 14.8925C6.30244 14.9075 6.36749 14.96 6.3919 15.005C6.74973 15.7099 7.34342 16.1073 8.18108 16.1148C9.01061 16.1223 9.62056 15.7474 9.98653 15.0575C10.0354 14.9675 10.0841 14.945 10.1817 14.945C10.5802 14.9525 10.9787 14.9525 11.3773 14.945C11.491 14.945 11.5399 14.975 11.5968 15.0725C12.2149 16.2948 14.0204 16.4897 14.9068 15.4249C15.4029 14.825 15.4761 14.1577 15.102 13.4903C14.7279 12.8304 14.1017 12.4855 13.2884 12.523C12.4914 12.553 11.914 12.9279 11.5805 13.6028C11.5236 13.7228 11.4586 13.7603 11.3203 13.7527C10.9462 13.7453 10.5721 13.7527 10.1898 13.7453C10.133 13.7453 10.0597 13.7002 10.0354 13.6553C9.68563 12.9429 9.10007 12.538 8.24615 12.523C7.38408 12.508 6.77413 12.9054 6.40003 13.6177C6.3919 13.6253 6.38376 13.6327 6.36749 13.6553C6.07472 13.5203 5.90393 13.3028 5.8714 13.0104C5.80634 12.463 5.76569 11.9156 5.70876 11.3457C5.70876 11.3457 10.4989 11.3457 12.7842 11.3457C14.1911 11.3457 15.2728 10.6408 15.7282 9.41109C16.3707 7.67139 17.005 5.92422 17.6476 4.18455C17.6638 4.13956 17.7126 3.99708 17.7126 3.99708L4.98494 3.98208ZM13.3616 13.7152C13.7194 13.7152 14.0204 13.9852 14.0204 14.3152C14.0204 14.6376 13.7276 14.9075 13.3779 14.9151C13.02 14.9225 12.7191 14.6525 12.7191 14.3152C12.711 13.9852 12.9957 13.7152 13.3616 13.7152ZM8.19735 13.7152C8.55518 13.7152 8.85609 13.9777 8.85609 14.3076C8.86423 14.6376 8.56331 14.9151 8.20549 14.9151C7.84765 14.9225 7.54673 14.6525 7.54673 14.3152C7.54673 13.9852 7.83138 13.7228 8.19735 13.7152ZM15.3704 6.63659C15.0776 7.43144 14.7848 8.23379 14.4921 9.0286C14.2318 9.73348 13.63 10.1309 12.8248 10.1309C10.4745 10.1309 8.12416 10.1309 5.76568 10.1309H5.58675C5.42411 8.48874 5.26146 6.85404 5.10694 5.20436H15.899C15.712 5.69176 15.5412 6.16417 15.3704 6.63659Z" fill="white"/>
</svg>
