<svg width="26" height="20" viewBox="0 0 26 20" fill="none" xmlns="http://www.w3.org/2000/svg">
<path d="M25.8508 12.6299C25.8403 12.5756 25.8386 12.5183 25.8173 12.4687C25.8172 12.4687 25.8173 12.4685 25.8172 12.4684L21.0557 1.39973C21.0507 1.38795 21.0403 1.38076 21.0348 1.36937C21.014 1.32669 20.985 1.29196 20.957 1.25428C20.9337 1.22261 20.9178 1.18707 20.8895 1.15903C20.8777 1.14733 20.8643 1.13906 20.8518 1.12824C20.8188 1.09926 20.7798 1.08074 20.7422 1.05764C20.7223 1.04544 20.7043 1.03017 20.6833 1.01978C20.6681 1.01227 20.6583 0.998816 20.6425 0.992182C20.6416 0.991744 20.6404 0.991932 20.6395 0.991556C20.6256 0.985799 20.6109 0.984485 20.5967 0.979478C20.557 0.965585 20.5148 0.963207 20.4728 0.955759C20.4148 0.945495 20.3586 0.934606 20.2988 0.937736C20.2867 0.938299 20.2759 0.932979 20.2637 0.934106L15.2699 1.40473C14.934 0.716818 14.2262 0.237183 13.4013 0.237183C12.4369 0.237183 11.6315 0.890923 11.3971 1.77002L6.39055 2.24184C6.35355 2.24541 6.32347 2.26418 6.28831 2.2725C6.24769 2.28202 6.20568 2.28364 6.16722 2.29935C6.16321 2.30098 6.15897 2.30023 6.15497 2.30191C6.14431 2.30648 6.13789 2.31581 6.12749 2.32081C6.08497 2.34122 6.05044 2.36963 6.0128 2.3968C5.97986 2.42032 5.94426 2.43779 5.91526 2.46645C5.90421 2.4774 5.89533 2.4891 5.88499 2.50062C5.85299 2.53616 5.83268 2.57797 5.80781 2.61878C5.78972 2.64825 5.76307 2.66997 5.74878 2.70245L0.987314 13.5468C0.986869 13.5479 0.98706 13.549 0.986615 13.5501C0.969416 13.5896 0.969289 13.6356 0.959008 13.6782C0.945299 13.7357 0.923974 13.7924 0.923847 13.8499C0.923848 13.8507 0.92334 13.8514 0.92334 13.8522C0.92334 16.8673 3.40917 19.3205 6.46468 19.3205C9.5207 19.3205 12.0065 16.8673 12.0065 13.8522C12.0065 13.8514 12.006 13.8507 12.006 13.8499C12.0059 13.7924 11.9846 13.7357 11.9709 13.6782C11.9606 13.6356 11.9605 13.5896 11.9432 13.5501C11.9428 13.549 11.943 13.5479 11.9426 13.5468L7.60688 3.67324L11.6018 3.29673C11.9602 3.91555 12.6281 4.33861 13.4013 4.33861C14.3149 4.33861 15.0837 3.75097 15.3624 2.94202L19.1082 2.58898L14.858 12.4684C14.8579 12.4685 14.858 12.4687 14.8579 12.4687C14.8365 12.5183 14.8349 12.5756 14.8245 12.6299C14.8156 12.6764 14.7961 12.7223 14.7961 12.7686C14.7961 12.7687 14.796 12.7687 14.796 12.7688C14.796 15.7837 17.2818 18.236 20.3378 18.236C23.3934 18.236 25.8792 15.7837 25.8792 12.7688C25.8792 12.7687 25.8791 12.7687 25.8791 12.7686C25.8791 12.7223 25.8595 12.6764 25.8508 12.6299ZM23.9213 11.9997H16.7539L20.3377 3.66935L23.9213 11.9997ZM6.46474 4.94367L10.039 13.0832H2.89085L6.46474 4.94367ZM6.46468 17.7824C4.53608 17.7824 2.92544 16.4209 2.56191 14.6212H10.368C10.0044 16.4209 8.39374 17.7824 6.46468 17.7824ZM13.4013 2.80058C13.1144 2.80058 12.8813 2.57027 12.8813 2.2879C12.8813 2.00553 13.1144 1.77522 13.4013 1.77522C13.6881 1.77522 13.9212 2.00553 13.9212 2.2879C13.9212 2.57027 13.6881 2.80058 13.4013 2.80058ZM20.3378 16.698C18.4088 16.698 16.7981 15.3373 16.4345 13.5378H24.2406C23.8771 15.3373 22.2664 16.698 20.3378 16.698Z" fill="#005288"/>
</svg>
