<svg width="36" height="28" viewBox="0 0 36 28" fill="none" xmlns="http://www.w3.org/2000/svg">
<path d="M35.959 18.1832C35.9439 18.1036 35.9415 18.0195 35.9108 17.9467C35.9106 17.9467 35.9107 17.9464 35.9106 17.9462L29.042 1.70575C29.0347 1.68847 29.0198 1.67792 29.0118 1.66121C28.9818 1.59858 28.94 1.54762 28.8995 1.49234C28.8659 1.44588 28.8429 1.39372 28.8021 1.35258C28.7852 1.33541 28.7658 1.32329 28.7478 1.3074C28.7001 1.26489 28.6438 1.23771 28.5897 1.20382C28.5609 1.18592 28.5349 1.16351 28.5047 1.14827C28.4827 1.13725 28.4686 1.11751 28.4459 1.10778C28.4445 1.10713 28.4429 1.10741 28.4415 1.10686C28.4214 1.09841 28.4002 1.09648 28.3797 1.08914C28.3225 1.06875 28.2616 1.06526 28.201 1.05433C28.1173 1.03927 28.0364 1.0233 27.9501 1.02789C27.9326 1.02872 27.917 1.02091 27.8994 1.02256L20.6957 1.71308C20.211 0.703746 19.1899 0 18 0C16.6089 0 15.447 0.959203 15.1089 2.24906L7.88671 2.94134C7.83334 2.94657 7.78995 2.97412 7.73922 2.98633C7.68063 3.00029 7.62003 3.00268 7.56454 3.02572C7.55877 3.02811 7.55265 3.02701 7.54688 3.02948C7.5315 3.03619 7.52224 3.04988 7.50723 3.05722C7.44589 3.08716 7.39609 3.12884 7.34179 3.1687C7.29427 3.20321 7.24292 3.22884 7.20108 3.2709C7.18515 3.28696 7.17234 3.30413 7.15741 3.32104C7.11126 3.37319 7.08196 3.43452 7.04609 3.4944C7.01999 3.53765 6.98154 3.56951 6.96093 3.61717L0.0922851 19.5285C0.0916443 19.5301 0.0919189 19.5318 0.0912782 19.5334C0.0664674 19.5915 0.0662842 19.6589 0.0514527 19.7214C0.0316773 19.8057 0.000915393 19.889 0.000732243 19.9733C0.000732393 19.9745 0 19.9755 0 19.9767C0 24.4005 3.58593 28 7.99365 28C12.4021 28 15.9881 24.4005 15.9881 19.9767C15.9881 19.9755 15.9873 19.9745 15.9873 19.9733C15.9872 19.889 15.9564 19.8057 15.9366 19.7214C15.9218 19.6589 15.9216 19.5915 15.8967 19.5334C15.8961 19.5318 15.8964 19.5301 15.8958 19.5285L9.64132 5.04156L15.4042 4.48914C15.9211 5.3971 16.8848 6.01783 18 6.01783C19.3179 6.01783 20.427 5.15561 20.829 3.96868L26.2326 3.45069L20.1013 17.9462C20.1012 17.9464 20.1013 17.9467 20.1012 17.9467C20.0704 18.0195 20.0681 18.1036 20.0531 18.1832C20.0403 18.2514 20.0121 18.3188 20.0121 18.3867C20.0121 18.3869 20.0119 18.3869 20.0119 18.387C20.0119 22.8107 23.5979 26.4089 28.0064 26.4089C32.4141 26.4089 36 22.8107 36 18.387C36 18.3869 35.9999 18.3869 35.9999 18.3867C35.9999 18.3188 35.9716 18.2514 35.959 18.1832ZM33.1757 17.2586H22.8363L28.0062 5.03586L33.1757 17.2586ZM7.99374 6.90561L13.1497 18.8484H2.83823L7.99374 6.90561ZM7.99365 25.7433C5.21156 25.7433 2.88813 23.7456 2.36371 21.1051H13.6243C13.0999 23.7456 10.7764 25.7433 7.99365 25.7433ZM18 3.76115C17.5861 3.76115 17.25 3.42324 17.25 3.00892C17.25 2.59461 17.5861 2.2567 18 2.2567C18.4139 2.2567 18.75 2.59461 18.75 3.00892C18.75 3.42324 18.4139 3.76115 18 3.76115ZM28.0064 24.1522C25.2236 24.1522 22.9 22.1557 22.3757 19.5154H33.6363C33.1119 22.1557 30.7884 24.1522 28.0064 24.1522Z" fill="#005288"/>
</svg>
