<svg width="9" height="9" viewBox="0 0 9 9" fill="none" xmlns="http://www.w3.org/2000/svg">
<path d="M4.28538 0.00178432C3.26224 0.0559607 2.32776 0.430974 1.5516 1.09798C1.44957 1.18593 1.22791 1.40474 1.13432 1.51028C0.869742 1.81001 0.659343 2.11889 0.482017 2.47068C0.218843 2.99134 0.0710711 3.50848 0.0126661 4.11005C-0.00422205 4.28735 -0.00422205 4.71373 0.0126661 4.89103C0.0710711 5.4926 0.218843 6.00974 0.482017 6.5304C0.707897 6.97788 0.98233 7.3529 1.34472 7.70891C1.68178 8.0403 2.03151 8.2936 2.44105 8.50467C2.9681 8.77485 3.49797 8.92823 4.10946 8.98734C4.28679 9.00422 4.71321 9.00422 4.89054 8.98734C5.50203 8.92823 6.0319 8.77485 6.55895 8.50467C6.96849 8.2936 7.31822 8.0403 7.65528 7.70891C8.01767 7.3529 8.2921 6.97788 8.51798 6.5304C8.78116 6.00974 8.92893 5.4926 8.98733 4.89103C9.00422 4.71373 9.00422 4.28735 8.98733 4.11005C8.92893 3.50848 8.78116 2.99134 8.51798 2.47068C8.2921 2.0232 8.01767 1.64819 7.65528 1.29217C7.42377 1.06421 7.22815 0.906601 6.96638 0.734221C6.34152 0.324732 5.65262 0.0855112 4.89758 0.015152C4.78358 0.00459862 4.39374 -0.00384521 4.28538 0.00178432ZM4.79203 0.929819C5.01509 0.948816 5.17975 0.976256 5.3817 1.02762C6.57443 1.33087 7.52932 2.22583 7.9093 3.3959C8.09156 3.95737 8.13096 4.57653 8.02189 5.16403C7.78475 6.44245 6.84887 7.50557 5.60477 7.90944C5.04324 8.09166 4.424 8.13107 3.83643 8.02201C2.55786 7.7849 1.49461 6.84912 1.0907 5.60518C0.908444 5.04371 0.869038 4.42455 0.978108 3.83705C1.18358 2.7296 1.92244 1.76498 2.94206 1.27388C3.34527 1.07968 3.77099 0.964999 4.22908 0.927005C4.34871 0.917155 4.66325 0.918562 4.79203 0.929819Z" fill="white"/>
<path d="M4.29597 2.0026C4.18408 2.01175 4.02857 2.03496 3.9195 2.05889C3.11379 2.2383 2.43474 2.81806 2.12723 3.58849C1.9112 4.13166 1.89009 4.74027 2.06953 5.2961C2.29471 5.99547 2.81332 6.56256 3.49448 6.85244C3.83295 6.99668 4.20168 7.06211 4.59151 7.04593C5.49785 7.01005 6.32397 6.47321 6.73421 5.65353C6.81443 5.49452 6.88199 5.3144 6.92069 5.16172C6.92843 5.12865 6.93687 5.09628 6.93899 5.08925C6.9425 5.07799 6.91084 5.07729 6.34086 5.07729H5.73921L5.70262 5.14835C5.46407 5.61272 4.99261 5.90119 4.4733 5.90049C4.09401 5.89978 3.7471 5.75203 3.48322 5.47693C3.27915 5.26514 3.1539 5.00904 3.11097 4.71775C3.0969 4.62277 3.0962 4.42928 3.11027 4.33289C3.18979 3.77494 3.59933 3.32042 4.14468 3.18604C4.33045 3.1396 4.54296 3.13467 4.73577 3.17126C4.83006 3.18885 4.97361 3.23529 5.06298 3.2775C5.32264 3.39922 5.56118 3.62648 5.68714 3.87063L5.71388 3.9234L6.32116 3.92481C6.7504 3.92621 6.92773 3.92481 6.92773 3.91918C6.92773 3.90511 6.88691 3.76579 6.86088 3.69121C6.7891 3.48717 6.70466 3.3169 6.57941 3.12834C6.48441 2.98551 6.40489 2.88631 6.28808 2.7674C6.14383 2.61965 6.01857 2.51552 5.86658 2.41561C5.52811 2.19257 5.16923 2.0624 4.75829 2.01245C4.65133 1.99978 4.40363 1.99416 4.29597 2.0026Z" fill="white"/>
</svg>
