<svg width="38" height="38" viewBox="0 0 38 38" fill="none" xmlns="http://www.w3.org/2000/svg">
<g clip-path="url(#clip0_76_594)">
<path d="M38 19.1163C38 8.55706 29.4927 -0.00244141 19 -0.00244141C8.50249 -6.64061e-05 -0.00476074 8.55706 -0.00476074 19.1187C-0.00476074 28.6591 6.94449 36.5678 16.0265 38.0023V24.6429H11.2052V19.1187H16.0312V14.9031C16.0312 10.1127 18.8694 7.46693 23.2085 7.46693C25.289 7.46693 27.4621 7.83981 27.4621 7.83981V12.5423H25.0657C22.7074 12.5423 21.9711 14.0172 21.9711 15.5301V19.1163H27.2389L26.3981 24.6406H21.9687V37.9999C31.0507 36.5654 38 28.6567 38 19.1163Z" fill="white"/>
</g>
<defs>
<clipPath id="clip0_76_594">
<rect width="38" height="38" fill="white"/>
</clipPath>
</defs>
</svg>
