<svg width="31" height="25" viewBox="0 0 31 25" fill="none" xmlns="http://www.w3.org/2000/svg">
<path fill-rule="evenodd" clip-rule="evenodd" d="M0.875 23.4688C0.875 23.1455 1.0034 22.8355 1.23196 22.607C1.46052 22.3784 1.77052 22.25 2.09375 22.25H19.1562C19.4795 22.25 19.7895 22.3784 20.018 22.607C20.2466 22.8355 20.375 23.1455 20.375 23.4688C20.375 23.792 20.2466 24.102 20.018 24.3305C19.7895 24.5591 19.4795 24.6875 19.1562 24.6875H2.09375C1.77052 24.6875 1.46052 24.5591 1.23196 24.3305C1.0034 24.102 0.875 23.792 0.875 23.4688ZM0.875 16.1562C0.875 15.833 1.0034 15.523 1.23196 15.2945C1.46052 15.0659 1.77052 14.9375 2.09375 14.9375H28.9062C29.2295 14.9375 29.5395 15.0659 29.768 15.2945C29.9966 15.523 30.125 15.833 30.125 16.1562C30.125 16.4795 29.9966 16.7895 29.768 17.018C29.5395 17.2466 29.2295 17.375 28.9062 17.375H2.09375C1.77052 17.375 1.46052 17.2466 1.23196 17.018C1.0034 16.7895 0.875 16.4795 0.875 16.1562ZM0.875 8.84375C0.875 8.52052 1.0034 8.21052 1.23196 7.98196C1.46052 7.7534 1.77052 7.625 2.09375 7.625H28.9062C29.2295 7.625 29.5395 7.7534 29.768 7.98196C29.9966 8.21052 30.125 8.52052 30.125 8.84375C30.125 9.16698 29.9966 9.47698 29.768 9.70554C29.5395 9.9341 29.2295 10.0625 28.9062 10.0625H2.09375C1.77052 10.0625 1.46052 9.9341 1.23196 9.70554C1.0034 9.47698 0.875 9.16698 0.875 8.84375ZM0.875 1.53125C0.875 1.20802 1.0034 0.898024 1.23196 0.669464C1.46052 0.440904 1.77052 0.3125 2.09375 0.3125H28.9062C29.2295 0.3125 29.5395 0.440904 29.768 0.669464C29.9966 0.898024 30.125 1.20802 30.125 1.53125C30.125 1.85448 29.9966 2.16448 29.768 2.39304C29.5395 2.6216 29.2295 2.75 28.9062 2.75H2.09375C1.77052 2.75 1.46052 2.6216 1.23196 2.39304C1.0034 2.16448 0.875 1.85448 0.875 1.53125Z" fill="#005288"/>
</svg>
