<svg width="22" height="18" viewBox="0 0 22 18" fill="none" xmlns="http://www.w3.org/2000/svg">
<path d="M11.1051 4.06398L10.9397 3.91827L10.0188 3.10686L10.1841 2.91928L10.0188 3.10686C9.00581 2.21435 7.55465 1.91084 6.17046 2.12765C4.78556 2.34458 3.51106 3.07547 2.84226 4.19467L11.1051 4.06398ZM11.1051 4.06398L11.2704 3.91816M11.1051 4.06398L11.2704 3.91816M11.2704 3.91816L12.1912 3.10576C13.2042 2.21327 14.6553 1.91002 16.0395 2.12709C17.4244 2.34429 18.699 3.07547 19.3678 4.19472L19.5824 4.06648M11.2704 3.91816L19.5824 4.06648M19.5824 4.06648L19.3678 4.19472C19.9859 5.22902 20.1524 6.75503 18.9638 8.76702C17.8221 10.6954 15.4402 13.0357 11.105 15.6027C6.76959 13.0356 4.38653 10.6953 3.24616 8.76697L19.5824 4.06648ZM10.9818 17.4372L11.105 17.5069L11.2282 17.4372C16.1697 14.638 19.0518 11.976 20.4836 9.611C21.9212 7.23621 21.9002 5.14902 21.0103 3.5584C20.1285 1.9821 18.4204 0.942738 16.5745 0.589704C14.7277 0.236469 12.7044 0.562633 11.1776 1.76739C11.1532 1.78611 11.129 1.80507 11.105 1.82428C11.0814 1.80507 11.0576 1.7861 11.0338 1.76737C9.5065 0.562541 7.48238 0.236635 5.63488 0.590331C3.78902 0.943715 2.08095 1.98321 1.19917 3.55951C0.309373 5.15013 0.288487 7.23719 1.72627 9.61177C3.15813 11.9766 6.04032 14.6383 10.9818 17.4372ZM3.24613 8.76692C2.05778 6.75638 2.22528 5.22923 2.84223 4.19472L3.24613 8.76692Z" fill="#005288" stroke="#005288" stroke-width="0.5"/>
</svg>
