<svg width="63" height="36" viewBox="0 0 63 36" fill="none" xmlns="http://www.w3.org/2000/svg">
<path d="M12.3914 7.40612C14.0101 7.61066 15.6608 7.91103 17.2506 8.26287C26.8532 10.3866 31.364 8.97235 35.6455 7.37574C36.2847 9.73558 33.1008 11.0529 27.6609 13.5798C24.7238 13.0071 12.5815 10.2978 12.3914 7.40612ZM63 26.6389C63 31.8004 58.579 36 53.1452 36C47.7108 36 43.2897 31.8004 43.2897 26.6389C43.2897 23.552 44.877 20.8181 47.3085 19.1128L44.271 13.4946C43.2454 14.1199 42.2918 14.8504 41.4329 15.6791C39.5959 17.5352 38.3808 19.7276 37.3854 22.147C35.6989 26.2379 32.6487 27.1718 28.9646 27.1718C25.2818 27.1718 21.8507 27.1718 21.8507 27.1718C21.8507 27.1718 21.919 26.4261 21.7676 25.2982L19.6605 25.7494C19.6912 26.0428 19.7084 26.3385 19.7084 26.6389C19.7084 31.8004 15.2874 36 9.85362 36C4.4211 36 0 31.8004 0 26.6389C0 21.4773 4.4211 17.278 9.85362 17.278C14.0156 17.278 17.5754 19.7451 19.0181 23.2177L21.1358 22.7642C20.5224 20.873 18.5069 18.0272 15.3427 16.6024L4.72439 11.8044L5.58819 10.0804C3.07063 8.96182 0.669996 7.6948 0.669996 6.93391H6.39046C7.55014 6.9725 8.86985 7.04848 10.2615 7.17586L10.2849 7.53001C10.4928 10.6928 16.1973 13.3894 27.237 15.5423L27.9397 15.6791L29.4716 14.9696C34.8419 12.4847 38.721 10.6882 37.6886 6.87546L37.6247 6.64054C38.6214 6.26299 39.5485 5.95678 40.4726 5.79546L38.1409 2.48421L35.4098 2.49237H35.4073C34.826 2.49237 34.3535 2.0459 34.3523 1.49302C34.3504 0.94136 34.8204 0.491364 35.403 0.487833L37.9741 0.480829C38.0873 0.347573 38.2313 0.233034 38.4011 0.148873C39.0729 -0.184244 39.9011 0.0600556 40.2511 0.698222L44.0748 6.42781C45.0628 7.15014 45.7704 8.31196 46.4077 9.57898C48.5204 8.82856 50.7931 8.42066 53.1452 8.42066C55.2567 8.42066 57.3331 8.74443 59.3172 9.38376C60.034 9.61636 60.4178 10.3562 60.173 11.0365C59.9306 11.7167 59.153 12.0849 58.4356 11.8512C56.7363 11.303 54.9571 11.0236 53.1452 11.0236C50.8756 11.0236 48.6903 11.4643 46.6932 12.2731L49.7214 17.8718C50.7895 17.4942 51.9387 17.278 53.1452 17.278C58.579 17.278 63 21.4773 63 26.6389ZM16.5443 26.6389C16.5443 26.564 16.5357 26.4928 16.5332 26.4191L13.1334 27.1485C12.875 28.6528 11.5116 29.804 9.85483 29.804C8.01468 29.804 6.52087 28.3863 6.52087 26.6389C6.52087 24.8903 8.01468 23.4725 9.85483 23.4725C10.8897 23.4725 11.8021 23.9283 12.4142 24.6332L15.8774 23.8897C14.7964 21.7602 12.5059 20.2828 9.85362 20.2828C6.16526 20.2828 3.16417 23.1335 3.16417 26.6389C3.16417 30.143 6.16526 32.9949 9.85362 32.9949C13.5432 32.9949 16.5443 30.143 16.5443 26.6389ZM59.8359 26.6389C59.8359 23.1335 56.8335 20.2828 53.1452 20.2828C52.469 20.2828 51.8169 20.3798 51.2016 20.5574L52.8252 23.5029C52.9317 23.4923 53.0344 23.4725 53.1452 23.4725C54.9854 23.4725 56.4779 24.8903 56.4779 26.6389C56.4779 28.3863 54.9854 29.804 53.1452 29.804C51.305 29.804 49.8112 28.3863 49.8112 26.6389C49.8112 25.9481 50.0493 25.3169 50.4437 24.7956L48.7998 21.8151C47.3663 22.9816 46.4539 24.7091 46.4539 26.6389C46.4539 30.143 49.455 32.9949 53.1452 32.9949C56.8335 32.9949 59.8359 30.143 59.8359 26.6389Z" fill="white"/>
</svg>
