<svg width="57" height="38" viewBox="0 0 57 38" fill="none" xmlns="http://www.w3.org/2000/svg">
<path d="M0.877945 31.247V35.4378C0.877945 36.8524 1.94836 38 3.26886 38H6.17225C7.49194 38 8.56235 36.8524 8.56235 35.4378V34.1483L6.91074 34.1509C4.57192 34.1509 2.38883 33.0726 0.877945 31.247Z" fill="white"/>
<path d="M50.1015 34.0764L48.4374 34.079V35.4378C48.4374 36.8524 49.5079 38 50.8284 38H53.7318C55.0515 38 56.1219 36.8524 56.1219 35.4378V31.1733C54.6135 32.9953 52.4361 34.0729 50.1015 34.0764Z" fill="white"/>
<path d="M0.678652 28.1571L1.04343 28.8837C2.20706 31.2019 4.46585 32.646 6.92148 32.6418L27.1545 32.6072L50.0993 32.5679C52.5543 32.5637 54.8083 31.1127 55.9653 28.7915L56.3293 28.0614C56.9583 26.7994 57.1525 25.3406 56.8796 23.9399C56.7729 23.3926 56.6541 22.7969 56.5337 22.2209C55.9923 19.6288 54.5489 17.3558 52.4987 15.864L48.1976 12.7343C47.3369 12.108 46.5267 11.4102 45.7734 10.6494L47.1328 10.289C48.2806 9.98485 49.0868 8.88083 49.0868 7.61347C49.0868 6.58155 48.1835 5.82352 47.249 6.07116L45.6319 6.49979C44.7482 6.73399 44.0675 7.44249 43.8008 8.33453C43.3618 7.73501 42.9521 7.10976 42.5752 6.45974L40.4846 2.8542C39.4537 1.07637 37.6385 -0.00332929 35.6858 7.71279e-06L29.8218 0.0101057L21.2463 0.0247729C19.2942 0.0281099 17.4825 1.11342 16.4568 2.89398L14.3739 6.50997C14.0112 7.13953 13.6184 7.7466 13.1975 8.32908C12.9296 7.43968 12.2499 6.73355 11.3681 6.49979L9.75098 6.07116C8.81655 5.82352 7.91317 6.58163 7.91317 7.61347C7.91317 8.88083 8.7194 9.98485 9.86714 10.289L11.2415 10.6533C10.4755 11.4375 9.65014 12.1565 8.77109 12.8003L4.47486 15.9472C2.42963 17.4453 0.992969 19.7221 0.458624 22.3152C0.339762 22.8921 0.222375 23.4887 0.117029 24.037C-0.152069 25.4385 0.0460879 26.897 0.678652 28.1571ZM44.8418 20.7349C46.1521 18.8126 50.2202 18.307 51.5421 18.1918C51.8 18.1693 52.0433 18.3207 52.1525 18.5721C52.4962 19.3632 53.1443 21.1261 52.7067 22.3325C52.2198 23.6746 46.3567 24.5157 44.4948 24.7502C44.1495 24.7937 43.8366 24.5246 43.8061 24.1534C43.7469 23.4332 43.8499 22.1899 44.8418 20.7349ZM44.439 27.7272H46.3628C46.7514 27.7272 47.0666 28.0649 47.0666 28.4816C47.0666 28.8982 46.7515 29.2359 46.3628 29.2359H44.439C44.0504 29.2359 43.7353 28.8982 43.7353 28.4816C43.7353 28.0649 44.0504 27.7272 44.439 27.7272ZM16.9372 23.6109C16.9372 24.0275 16.6222 24.3652 16.2336 24.3652C15.845 24.3652 15.5298 24.0275 15.5298 23.6109V21.5485C15.5298 21.1318 15.8449 20.7941 16.2336 20.7941C16.6222 20.7941 16.9372 21.1318 16.9372 21.5485V23.6109ZM20.4419 24.1603C20.4419 24.5769 20.1269 24.9146 19.7382 24.9146C19.3496 24.9146 19.0346 24.5769 19.0346 24.1603V22.0978C19.0346 21.6812 19.3496 21.3435 19.7382 21.3435C20.1269 21.3435 20.4419 21.6812 20.4419 22.0978V24.1603ZM23.9467 24.7097C23.9467 25.1263 23.6316 25.4641 23.2429 25.4641C22.8542 25.4641 22.5392 25.1263 22.5392 24.7097V22.6473C22.5392 22.2307 22.8543 21.893 23.2429 21.893C23.6315 21.893 23.9467 22.2307 23.9467 22.6473V24.7097ZM27.4513 25.8085C27.4513 26.2252 27.1363 26.5628 26.7477 26.5628C26.359 26.5628 26.0439 26.2251 26.0439 25.8085V23.7461C26.0439 23.3295 26.359 22.9918 26.7477 22.9918C27.1363 22.9918 27.4513 23.3295 27.4513 23.7461V25.8085ZM30.9561 25.8085C30.9561 26.2252 30.641 26.5628 30.2524 26.5628C29.8638 26.5628 29.5486 26.2251 29.5486 25.8085V23.7461C29.5486 23.3295 29.8637 22.9918 30.2524 22.9918C30.641 22.9918 30.9561 23.3295 30.9561 23.7461V25.8085ZM34.4608 24.7097C34.4608 25.1263 34.1458 25.4641 33.7571 25.4641C33.3684 25.4641 33.0535 25.1263 33.0535 24.7097V22.6473C33.0535 22.2307 33.3685 21.893 33.7571 21.893C34.1458 21.893 34.4608 22.2307 34.4608 22.6473V24.7097ZM37.9655 24.1603C37.9655 24.5769 37.6505 24.9146 37.2618 24.9146C36.8732 24.9146 36.5581 24.5769 36.5581 24.1603V22.0978C36.5581 21.6812 36.8732 21.3435 37.2618 21.3435C37.6504 21.3435 37.9655 21.6812 37.9655 22.0978V24.1603ZM41.4702 23.6109C41.4702 24.0275 41.1552 24.3652 40.7665 24.3652C40.3779 24.3652 40.0629 24.0275 40.0629 23.6109V21.5485C40.0629 21.1318 40.3779 20.7941 40.7665 20.7941C41.1552 20.7941 41.4702 21.1318 41.4702 21.5485V23.6109ZM14.9589 9.51381C15.3761 8.92456 15.7685 8.31187 16.135 7.67573L18.2179 4.05982C18.8717 2.92472 20.0051 2.24572 21.2497 2.24353L35.6892 2.21885C36.9374 2.21885 38.0708 2.89424 38.7268 4.02558L40.8174 7.63103C41.1955 8.28307 41.601 8.91033 42.0324 9.51275C42.2963 9.88123 42.1088 10.4163 41.6838 10.5063C37.734 11.3436 33.2515 11.8166 28.4999 11.8166C23.7456 11.8166 19.2608 11.3431 15.3093 10.5049C14.8856 10.4151 14.6978 9.88272 14.9589 9.51381ZM12.5611 29.2359H10.6372C10.2485 29.2359 9.93349 28.8982 9.93349 28.4816C9.93349 28.0649 10.2485 27.7272 10.6372 27.7272H12.561C12.9496 27.7272 13.2647 28.0649 13.2647 28.4816C13.2647 28.8982 12.9497 29.2359 12.5611 29.2359ZM4.84758 18.572C4.95678 18.3206 5.20007 18.1692 5.45795 18.1917C6.77976 18.307 10.8479 18.8126 12.1583 20.7348C13.1501 22.1899 13.2533 23.4332 13.194 24.1532C13.1636 24.5244 12.8506 24.7936 12.5053 24.75C10.6434 24.5155 4.78025 23.6745 4.29333 22.3323C3.85573 21.1261 4.50394 19.3631 4.84758 18.572Z" fill="white"/>
</svg>
