<svg width="24" height="21" viewBox="0 0 24 21" fill="none" xmlns="http://www.w3.org/2000/svg">
<path d="M5.4811 1.74302C5.39255 1.64335 5.28077 1.56131 5.1532 1.50234C5.02563 1.44337 4.88518 1.40883 4.74117 1.40101C4.59717 1.39319 4.45292 1.41227 4.31799 1.45698C4.18306 1.50169 4.06055 1.57101 3.9586 1.66033L2.4076 3.01877C1.6831 3.65402 1.4161 4.55308 1.7326 5.3419C3.04621 8.60685 5.18304 11.5711 7.9846 14.0149C10.7775 16.4662 14.1652 18.3359 17.8966 19.4854C18.7981 19.7623 19.8256 19.5287 20.5516 18.8948L22.1026 17.5376C22.2047 17.4484 22.2839 17.3412 22.335 17.2232C22.3861 17.1051 22.4079 16.9789 22.399 16.8529C22.39 16.7269 22.3505 16.604 22.2832 16.4924C22.2158 16.3807 22.122 16.2829 22.0081 16.2055L18.5476 13.8508C18.4259 13.7682 18.2844 13.7109 18.1337 13.6832C17.9829 13.6554 17.827 13.658 17.6776 13.6907L14.3926 14.4086C13.9541 14.5045 13.4947 14.4994 13.0592 14.3939C12.6236 14.2883 12.2267 14.0858 11.9071 13.8062L8.2231 10.5814C7.90325 10.3019 7.67159 9.95465 7.55067 9.57352C7.42975 9.1924 7.42369 8.79036 7.5331 8.40658L8.3551 5.53221C8.39246 5.40148 8.3954 5.26503 8.3637 5.13316C8.332 5.00129 8.26648 4.87744 8.1721 4.77096L5.4811 1.74302ZM2.8261 0.670708C3.08859 0.440955 3.40394 0.262692 3.7512 0.147758C4.09847 0.0328231 4.46971 -0.0161533 4.84027 0.00408058C5.21083 0.0243145 5.57223 0.113296 5.90047 0.265115C6.22871 0.416935 6.51628 0.62812 6.7441 0.884646L9.4351 3.91127C9.9286 4.46646 10.1026 5.18965 9.9076 5.87215L9.0871 8.74652C9.04467 8.8954 9.04697 9.05134 9.09375 9.19921C9.14053 9.34709 9.23022 9.48186 9.3541 9.59046L13.0396 12.8153C13.1639 12.9239 13.3181 13.0025 13.4874 13.0434C13.6567 13.0844 13.8352 13.0863 14.0056 13.0489L17.2891 12.331C17.674 12.2467 18.0758 12.2402 18.464 12.3118C18.8523 12.3835 19.2168 12.5314 19.5301 12.7444L22.9891 15.099C24.2326 15.9456 24.3466 17.5534 23.2336 18.526L21.6826 19.8831C20.5726 20.8543 18.9136 21.2809 17.3671 20.8045C13.4089 19.5858 9.815 17.6031 6.8521 15.0032C3.88103 12.411 1.61501 9.26687 0.222096 5.80389C-0.320904 4.45202 0.166596 2.99908 1.2766 2.02783L2.8276 0.670708H2.8261Z" fill="white"/>
</svg>
