<svg width="53" height="41" viewBox="0 0 53 41" fill="none" xmlns="http://www.w3.org/2000/svg">
<path d="M0 35.5147C0 38.5393 2.59127 41 5.77633 41H47.2237C50.4088 41 53 38.5393 53 35.5147C53 32.9677 51.1624 30.8209 48.6804 30.2063V27.3218H50.8293C51.5 27.3218 52.0436 26.8055 52.0436 26.1686V19.6835C52.0436 19.0466 51.4999 18.5303 50.8293 18.5303H35.2014C34.5307 18.5303 33.987 18.0141 33.987 17.3771V12.214C33.987 11.4655 33.6792 10.7467 33.1292 10.2106L31.9696 9.08043C31.4006 8.52585 30.6197 8.21306 29.8043 8.21306H27.1806L14.0605 0.225359C13.5342 -0.0950553 12.8539 -0.0720234 12.353 0.283121L11.3439 0.998641C10.6283 1.50593 10.5349 2.49071 11.1434 3.11135L16.6285 8.7056L19.6601 9.79719L12.6613 16.2752C12.1996 16.7026 11.8872 17.2543 11.7663 17.8557L10.5337 23.9871C10.4244 24.5307 9.92375 24.924 9.34089 24.924C8.6702 24.924 8.12651 25.4403 8.12651 26.0771V26.1684C8.12651 26.8053 8.6702 27.3216 9.34089 27.3216H13.1858V30.0292H5.77626C2.59119 30.0293 0 32.49 0 35.5147ZM41.3602 20.6092H47.5422C47.9014 20.6092 48.1925 20.8857 48.1925 21.2268C48.1925 21.5679 47.9014 21.8444 47.5422 21.8444H41.3602C41.001 21.8444 40.7099 21.5679 40.7099 21.2268C40.7099 20.8857 41.001 20.6092 41.3602 20.6092ZM41.3602 23.1703H47.5422C47.9014 23.1703 48.1925 23.4468 48.1925 23.7879C48.1925 24.129 47.9014 24.4055 47.5422 24.4055H41.3602C41.001 24.4055 40.7099 24.129 40.7099 23.7879C40.7099 23.4468 41.001 23.1703 41.3602 23.1703ZM12.3827 24.4519C12.3929 24.4106 12.4039 24.3697 12.4124 24.3278L13.6451 18.1964C13.6927 17.9592 13.8142 17.7446 13.9963 17.5761L21.8261 10.3288C22.0347 10.1358 22.3099 10.0295 22.6011 10.0295H29.8043C29.8332 10.0295 29.8619 10.0306 29.8905 10.0327C30.0719 10.0465 30.1915 10.2193 30.1408 10.3851L28.0382 17.2644C27.6286 18.6047 26.7713 19.7823 25.5955 20.6197L24.1152 21.674C23.4588 22.1414 22.8972 22.7183 22.4578 23.3762L21.1218 25.3769C21.0684 25.4568 20.9757 25.5053 20.876 25.5053H17.9759L19.884 23.6933C19.9312 23.6983 19.979 23.7015 20.0276 23.7015C20.7301 23.7015 21.2996 23.1607 21.2996 22.4936C21.2996 21.8265 20.7301 21.2857 20.0276 21.2857C19.3251 21.2857 18.7556 21.8265 18.7556 22.4936C18.7556 22.5397 18.7589 22.5852 18.7643 22.63L15.7364 25.5054H13.5127L20.1254 19.2258L21.1244 20.1745C21.4336 20.4681 21.9349 20.4681 22.2441 20.1745C22.5533 19.8809 22.5533 19.4048 22.2441 19.1112L19.3964 16.4069C19.0871 16.1133 18.5858 16.1133 18.2767 16.4069C17.9674 16.7006 17.9674 17.1766 18.2767 17.4702L19.0057 18.1625L12.3827 24.4519ZM5.77626 31.8457H47.2237C49.354 31.8457 51.0872 33.4916 51.0872 35.5147C51.0872 37.5377 49.354 39.1836 47.2237 39.1836H5.77626C3.64589 39.1836 1.91269 37.5377 1.91269 35.5147C1.91277 33.4916 3.64589 31.8457 5.77626 31.8457Z" fill="white"/>
<path d="M8.87537 35.781C9.02968 34.5908 8.13878 33.5072 6.88548 33.3607C5.63218 33.2141 4.49109 34.0602 4.33678 35.2503C4.18247 36.4405 5.07337 37.5241 6.32667 37.6706C7.57997 37.8172 8.72106 36.9711 8.87537 35.781Z" fill="white"/>
<path d="M12.29 37.6859C13.5528 37.6859 14.5764 36.7138 14.5764 35.5147C14.5764 34.3155 13.5528 33.3434 12.29 33.3434C11.0272 33.3434 10.0035 34.3155 10.0035 35.5147C10.0035 36.7138 11.0272 37.6859 12.29 37.6859Z" fill="white"/>
<path d="M17.9739 37.6859C19.2367 37.6859 20.2604 36.7138 20.2604 35.5147C20.2604 34.3155 19.2367 33.3434 17.9739 33.3434C16.7112 33.3434 15.6875 34.3155 15.6875 35.5147C15.6875 36.7138 16.7112 37.6859 17.9739 37.6859Z" fill="white"/>
<path d="M23.658 37.6859C24.9207 37.6859 25.9444 36.7138 25.9444 35.5147C25.9444 34.3155 24.9207 33.3434 23.658 33.3434C22.3952 33.3434 21.3715 34.3155 21.3715 35.5147C21.3715 36.7138 22.3952 37.6859 23.658 37.6859Z" fill="white"/>
<path d="M29.3419 37.6859C30.6047 37.6859 31.6284 36.7139 31.6284 35.5147C31.6284 34.3155 30.6047 33.3434 29.3419 33.3434C28.0792 33.3434 27.0555 34.3155 27.0555 35.5147C27.0555 36.7139 28.0792 37.6859 29.3419 37.6859Z" fill="white"/>
<path d="M35.0259 37.6859C36.2887 37.6859 37.3123 36.7138 37.3123 35.5147C37.3123 34.3155 36.2887 33.3434 35.0259 33.3434C33.7631 33.3434 32.7394 34.3155 32.7394 35.5147C32.7394 36.7138 33.7631 37.6859 35.0259 37.6859Z" fill="white"/>
<path d="M40.7098 37.6859C41.9726 37.6859 42.9963 36.7138 42.9963 35.5147C42.9963 34.3155 41.9726 33.3434 40.7098 33.3434C39.4471 33.3434 38.4234 34.3155 38.4234 35.5147C38.4234 36.7138 39.4471 37.6859 40.7098 37.6859Z" fill="white"/>
<path d="M46.3938 37.6859C47.6565 37.6859 48.6803 36.7139 48.6803 35.5147C48.6803 34.3155 47.6566 33.3434 46.3938 33.3434C45.131 33.3434 44.1074 34.3155 44.1074 35.5147C44.1074 36.7139 45.1311 37.6859 46.3938 37.6859Z" fill="white"/>
<path d="M3.76526 19.6718V21.5761C3.76526 22.1647 4.00588 22.7304 4.43633 23.1539C5.2084 23.9136 6.42975 24.068 7.3843 23.5269L8.89248 22.6718C8.54473 21.7735 7.89156 21.0109 7.03632 20.5047L6.60603 20.2499L6.58774 20.1573C6.41728 19.2936 6.04551 18.4771 5.49945 17.7676L6.43487 13.151C6.52187 13.1595 6.61123 13.1573 6.70098 13.1423C7.16616 13.0645 7.49363 12.6802 7.49363 12.2464C7.49363 12.1948 7.48904 12.1425 7.47909 12.0902L7.17993 10.4394C6.99631 9.42879 7.47144 8.41305 8.38422 7.86522L11.9358 5.73276L10.1914 3.9534C9.94963 3.7071 9.76218 3.42083 9.63509 3.11349L5.24039 7.06964C4.46839 7.76423 4.20443 8.82719 4.56786 9.77609L5.44062 12.0558L4.12608 17.5906C3.88722 18.261 3.76526 18.964 3.76526 19.6718Z" fill="white"/>
</svg>
