<svg width="57" height="40" viewBox="0 0 57 40" fill="none" xmlns="http://www.w3.org/2000/svg">
<path d="M54.424 16.2327H52.8904V9.41226H52.3491V1.18222L50.2291 3.91041V9.36679H49.6878V16.1873H30.5627L27.5406 2.50084C27.2249 1.04581 25.9168 0 24.4734 0H10.1747C8.41552 0 7.01722 1.40957 7.01722 3.18289V14.7777C7.69381 14.3685 8.41552 14.0047 9.13722 13.6864V3.81947C9.13722 2.68272 9.94913 1.77332 10.8964 1.77332H23.7517C24.5636 1.77332 25.2402 2.36443 25.4657 3.27383L27.9917 13.4591C28.3074 14.7777 27.4504 16.0509 26.2776 16.0509L23.5442 16.1873C23.9502 16.5965 24.6654 17.5429 25.0391 17.9172C25.0391 18.1446 25.3304 18.0515 25.2853 18.2789C26.6836 20.1431 27.5857 22.3257 27.9014 24.6447C27.9825 25.2398 28.0288 25.7103 28.0288 26.5742C28.0288 27.4381 28.0288 28.0713 27.9014 28.5551C27.6308 30.5103 26.9542 32.3745 25.9168 34.0114H38.5014C38.4563 33.6477 38.4112 33.3294 38.4112 32.9656C38.4112 28.8279 41.7491 25.4631 45.8538 25.4631C49.9584 25.4631 53.2963 28.8279 53.2963 32.9656C53.2963 33.3294 53.2512 33.6477 53.2061 34.0114H54.4691C55.0555 34.0114 55.5967 33.6022 55.8223 32.9202L56.9048 25.0539C57.4461 23.7353 55.5516 16.2327 54.424 16.2327Z" fill="white"/>
<path d="M45.8989 27.0167C42.4257 27.0167 39.584 29.8813 39.584 33.3825C39.584 36.8837 42.4257 39.7483 45.8989 39.7483C49.3721 39.7483 52.2138 36.8837 52.2138 33.3825C52.2138 29.8358 49.3721 27.0167 45.8989 27.0167ZM45.8989 36.3835C44.2299 36.3835 42.8768 35.0194 42.8768 33.337C42.8768 31.6546 44.2299 30.2905 45.8989 30.2905C47.5678 30.2905 48.921 31.6546 48.921 33.337C48.921 35.0194 47.5678 36.3835 45.8989 36.3835Z" fill="white"/>
<path d="M26.534 27.2854C26.534 34.5203 21.1202 40 13.465 40C5.80977 40 0 34.135 0 26.9001C0 19.6652 5.80977 13.8001 13.465 13.8001C21.1202 13.8001 26.534 20.0504 26.534 27.2854Z" fill="white"/>
<ellipse cx="13.465" cy="26.5148" rx="5.54441" ry="5.3941" fill="#005288"/>
</svg>
