<svg width="23" height="20" viewBox="0 0 23 20" fill="none" xmlns="http://www.w3.org/2000/svg">
<path d="M11.5 10C13.025 10 14.4875 9.47322 15.5659 8.53553C16.6442 7.59785 17.25 6.32608 17.25 5C17.25 3.67392 16.6442 2.40215 15.5659 1.46447C14.4875 0.526784 13.025 0 11.5 0C9.97501 0 8.51247 0.526784 7.43414 1.46447C6.3558 2.40215 5.75 3.67392 5.75 5C5.75 6.32608 6.3558 7.59785 7.43414 8.53553C8.51247 9.47322 9.97501 10 11.5 10ZM15.3333 5C15.3333 5.88405 14.9295 6.7319 14.2106 7.35702C13.4917 7.98214 12.5167 8.33333 11.5 8.33333C10.4833 8.33333 9.50831 7.98214 8.78942 7.35702C8.07053 6.7319 7.66667 5.88405 7.66667 5C7.66667 4.11594 8.07053 3.2681 8.78942 2.64298C9.50831 2.01786 10.4833 1.66667 11.5 1.66667C12.5167 1.66667 13.4917 2.01786 14.2106 2.64298C14.9295 3.2681 15.3333 4.11594 15.3333 5ZM23 18.3333C23 20 21.0833 20 21.0833 20H1.91667C1.91667 20 0 20 0 18.3333C0 16.6667 1.91667 11.6667 11.5 11.6667C21.0833 11.6667 23 16.6667 23 18.3333ZM21.0833 18.3267C21.0814 17.9167 20.7882 16.6833 19.4887 15.5533C18.239 14.4667 15.8872 13.3333 11.5 13.3333C7.11083 13.3333 4.761 14.4667 3.51133 15.5533C2.21183 16.6833 1.9205 17.9167 1.91667 18.3267H21.0833Z" fill="white"/>
</svg>
