<svg width="79" height="42" viewBox="0 0 79 42" fill="none" xmlns="http://www.w3.org/2000/svg">
<path d="M77.1908 0H24.8317C23.8325 0 23.0225 1.13895 23.0225 2.54361V3.36291C23.0225 4.4473 23.506 5.37066 24.1857 5.73666V30.7339H22.0359V13.1285C22.0359 13.1242 22.0363 13.1203 22.0363 13.116V10.784C22.0363 10.0512 21.555 9.50574 21.0456 9.66137L18.0634 10.5729C17.7648 10.6641 17.5273 10.982 17.4479 11.3969L17.2902 12.2206H14.9598C13.737 12.2206 12.5828 13.0162 11.8335 14.3749L8.49351 20.431C7.9119 21.4828 7.08168 22.2088 6.15358 22.4729L4.00151 23.0882C2.61105 23.4836 1.55246 25.0747 1.36121 27.0502L0.978722 31.0186C0.397113 31.4393 0 32.2934 0 33.2772V34.0965C0 35.501 0.809977 36.6398 1.80895 36.6398H4.23213C4.63824 39.6908 6.54169 42 8.82875 42C11.1158 42 13.0204 39.6908 13.4265 36.6398H27.0262C27.4324 39.6908 29.3369 42 31.624 42C33.9109 42 35.8156 39.6908 36.2217 36.6398H37.7866C38.1927 39.6908 40.0961 42 42.3843 42C44.6714 42 46.5748 39.6908 46.9809 36.6398H56.2045C56.6107 39.6908 58.5141 42 60.8012 42C63.0893 42 64.9928 39.6908 65.3989 36.6398H66.9637C67.3699 39.6908 69.2744 42 71.5615 42C73.8485 42 75.7531 39.6908 76.1592 36.6398H77.1908C78.1077 36.6398 78.8659 35.6797 78.9829 34.435H78.9998V34.0965V33.2772V3.36892C78.9998 3.36687 79 3.36497 79 3.36291V2.54361C79 1.13879 78.1899 0 77.1908 0ZM3.49865 30.7341C3.38503 30.8891 3.25453 30.9776 3.11729 30.9776C2.97892 30.9776 2.84842 30.8891 2.7348 30.7341C2.48505 30.3924 2.31519 29.7265 2.31519 28.961C2.31519 27.8475 2.67405 26.9444 3.11729 26.9444C3.5594 26.9444 3.91827 27.8475 3.91827 28.961C3.91827 29.7265 3.7484 30.3924 3.49865 30.7341ZM10.9099 36.6399C10.5702 37.7851 9.76585 38.5917 8.82875 38.5917C7.89165 38.5917 7.0873 37.7851 6.74756 36.6399C6.63619 36.2667 6.57544 35.8554 6.57544 35.4236C6.57544 35.0788 6.61481 34.7467 6.68794 34.4351C6.9838 33.1698 7.8309 32.2556 8.82875 32.2556C9.8266 32.2556 10.6737 33.1698 10.9696 34.4351C11.0427 34.7467 11.0821 35.0788 11.0821 35.4236C11.0821 35.8554 11.0213 36.2667 10.9099 36.6399ZM20.1234 22.5601C20.1234 23.15 19.7837 23.6277 19.3641 23.6277H12.4174C12.2037 23.6277 12.0034 23.4964 11.856 23.2781C11.5928 22.8859 11.2913 22.5474 10.9628 22.2722C10.5747 21.948 10.4825 21.2125 10.7603 20.7095L13.3444 16.0231C13.7291 15.3256 14.3332 14.9096 14.9598 14.9096H19.3641C19.7837 14.9096 20.1234 15.3873 20.1234 15.9772V22.5601ZM33.7041 36.6399C33.3654 37.7851 32.5611 38.5917 31.624 38.5917C30.6869 38.5917 29.8825 37.7851 29.5439 36.6399C29.4325 36.2667 29.3707 35.8554 29.3707 35.4236C29.3707 35.0788 29.41 34.7467 29.4832 34.4351C29.779 33.1698 30.6261 32.2556 31.624 32.2556C32.6218 32.2556 33.4689 33.1698 33.7648 34.4351C33.8379 34.7467 33.8773 35.0788 33.8773 35.4236C33.8773 35.8554 33.8154 36.2667 33.7041 36.6399ZM44.4644 36.6399C44.1246 37.7851 43.3203 38.5917 42.3843 38.5917C41.4472 38.5917 40.6429 37.7851 40.3031 36.6399C40.1917 36.2667 40.1299 35.8554 40.1299 35.4236C40.1299 35.0788 40.1692 34.7467 40.2424 34.4351C40.5382 33.1698 41.3865 32.2556 42.3843 32.2556C43.381 32.2556 44.2293 33.1698 44.5251 34.4351C44.5982 34.7467 44.6376 35.0788 44.6376 35.4236C44.6376 35.8554 44.5758 36.2667 44.4644 36.6399ZM62.8824 36.6399C62.5426 37.7851 61.7383 38.5917 60.8012 38.5917C59.8652 38.5917 59.0608 37.7851 58.7211 36.6399C58.6097 36.2667 58.5478 35.8554 58.5478 35.4236C58.5478 35.0788 58.5872 34.7467 58.6603 34.4351C58.9562 33.1698 59.8046 32.2556 60.8012 32.2556C61.799 32.2556 62.6472 33.1698 62.9431 34.4351C63.0162 34.7467 63.0556 35.0788 63.0556 35.4236C63.0556 35.8554 62.9937 36.2667 62.8824 36.6399ZM73.6427 36.6399C73.3029 37.7851 72.4986 38.5917 71.5615 38.5917C70.6244 38.5917 69.82 37.7851 69.4803 36.6399C69.3689 36.2667 69.3082 35.8554 69.3082 35.4236C69.3082 35.0788 69.3475 34.7467 69.4207 34.4351C69.7165 33.1698 70.5636 32.2556 71.5615 32.2556C72.5593 32.2556 73.4064 33.1698 73.7023 34.4351C73.7754 34.7467 73.8148 35.0788 73.8148 35.4236C73.8148 35.8554 73.7541 36.2667 73.6427 36.6399ZM73.2195 28.6763H29.9659C29.4378 28.6763 29.0097 28.0745 29.0097 27.3319C29.0097 26.5895 29.4378 25.9875 29.9659 25.9875H73.2195C73.7475 25.9875 74.1757 26.5895 74.1757 27.3319C74.1757 28.0743 73.7476 28.6763 73.2195 28.6763ZM73.2195 11.4015H29.9659C29.4378 11.4015 29.0097 10.7995 29.0097 10.0571C29.0097 9.31467 29.4378 8.71269 29.9659 8.71269H73.2195C73.7475 8.71269 74.1757 9.31467 74.1757 10.0571C74.1757 10.7997 73.7476 11.4015 73.2195 11.4015Z" fill="white"/>
</svg>
