<svg width="67" height="40" viewBox="0 0 67 40" fill="none" xmlns="http://www.w3.org/2000/svg">
<path d="M27.2032 27.1549C28.517 27.1549 29.582 26.0832 29.582 24.7612C29.582 23.4392 28.517 22.3676 27.2032 22.3676C25.8894 22.3676 24.8243 23.4392 24.8243 24.7612C24.8243 26.0832 25.8894 27.1549 27.2032 27.1549Z" fill="white"/>
<path d="M19.3959 23.9533C20.3249 23.0185 20.3249 21.5029 19.3959 20.5681C18.4669 19.6333 16.9607 19.6333 16.0318 20.5681C15.1028 21.5029 15.1028 23.0185 16.0318 23.9533C16.9607 24.888 18.4669 24.888 19.3959 23.9533Z" fill="white"/>
<path d="M36.6607 31.3048C37.9392 31.001 38.731 29.7117 38.4291 28.4251C38.1272 27.1386 36.8459 26.3419 35.5673 26.6457C34.2888 26.9495 33.497 28.2387 33.7989 29.5253C34.1008 30.8119 35.3821 31.6086 36.6607 31.3048Z" fill="white"/>
<path d="M6.67179 40H63.642C64.1598 40 64.6106 39.644 64.7337 39.1379L65.2921 36.8412H5.00366L5.58224 39.146C5.70829 39.6482 6.15715 40 6.67179 40Z" fill="white"/>
<path d="M66.99 29.8589C67.0499 29.6101 66.8316 29.3836 66.5833 29.4391C65.1402 29.7568 60.9452 30.4975 55.6375 29.7793C55.1324 29.7122 54.6166 29.6306 54.0921 29.5342C53.4913 29.4234 52.8789 29.2942 52.2568 29.1416C51.7478 29.0182 51.232 28.8782 50.7114 28.7237C47.7441 27.8392 44.6136 26.4328 41.5352 24.2546C29.272 15.5781 10.8066 11.6826 0.198025 16.553C0.0483087 16.621 -0.0299304 16.7901 0.0106379 16.9506L4.58906 35.1889H65.6936L66.99 29.8589ZM8.22582 25.5872C6.00808 25.5872 4.20472 23.7726 4.20472 21.541C4.20472 19.3105 6.00808 17.4958 8.22582 17.4958C10.4426 17.4958 12.2459 19.3105 12.2459 21.541C12.2459 23.7726 10.4426 25.5872 8.22582 25.5872ZM17.714 26.3065C15.4972 26.3065 13.6938 24.4919 13.6938 22.2604C13.6938 20.0298 15.4972 18.2152 17.714 18.2152C19.9317 18.2152 21.7351 20.0298 21.7351 22.2604C21.7351 24.4919 19.9317 26.3065 17.714 26.3065ZM27.2031 28.8073C24.9863 28.8073 23.182 26.9926 23.182 24.7611C23.182 22.5306 24.9863 20.7149 27.2031 20.7149C29.4208 20.7149 31.2242 22.5306 31.2242 24.7611C31.2242 26.9926 29.4208 28.8073 27.2031 28.8073ZM36.1136 33.0264C33.8969 33.0264 32.0925 31.2118 32.0925 28.9802C32.0925 26.7496 33.8969 24.9341 36.1136 24.9341C38.3314 24.9341 40.1347 26.7496 40.1347 28.9802C40.1347 31.2119 38.3314 33.0264 36.1136 33.0264Z" fill="white"/>
<path d="M8.22556 19.1477C6.91385 19.1477 5.84671 20.2215 5.84671 21.5414C5.84671 22.8613 6.91385 23.9351 8.22556 23.9351C9.53717 23.9351 10.6043 22.8613 10.6043 21.5414C10.6042 20.2215 9.53717 19.1477 8.22556 19.1477Z" fill="white"/>
<path d="M16.4921 9.11194L15.8034 12.9987C25.0018 13.9036 34.8812 17.527 42.48 22.9028C43.6874 23.7571 44.9035 24.485 46.1138 25.1041L48.8531 9.6397C49.0163 8.7183 48.3122 7.87262 47.3821 7.87262H17.9633C17.2388 7.87272 16.6187 8.39465 16.4921 9.11194ZM40.1686 10.667C40.1686 10.3046 40.4603 10.011 40.8206 10.011H44.8851C45.2454 10.011 45.5371 10.3046 45.5371 10.667V11.4932C45.5371 11.8557 45.2454 12.1493 44.8851 12.1493H40.8206C40.4603 12.1493 40.1686 11.8557 40.1686 11.4932V10.667ZM40.1686 15.0068C40.1686 14.6442 40.4603 14.3507 40.8206 14.3507H44.8851C45.2454 14.3507 45.5371 14.6442 45.5371 15.0068V15.8329C45.5371 16.1945 45.2454 16.489 44.8851 16.489H40.8206C40.4603 16.489 40.1686 16.1945 40.1686 15.8329V15.0068ZM33.2865 10.667C33.2865 10.3046 33.5782 10.011 33.9384 10.011H38.003C38.3633 10.011 38.655 10.3046 38.655 10.667V11.4932C38.655 11.8557 38.3633 12.1493 38.003 12.1493H33.9384C33.5782 12.1493 33.2865 11.8557 33.2865 11.4932V10.667ZM33.2865 15.0068C33.2865 14.6442 33.5782 14.3507 33.9384 14.3507H38.003C38.3633 14.3507 38.655 14.6442 38.655 15.0068V15.8329C38.655 16.1945 38.3633 16.489 38.003 16.489H33.9384C33.5782 16.489 33.2865 16.1945 33.2865 15.8329V15.0068ZM26.215 10.667C26.215 10.3046 26.5067 10.011 26.867 10.011H30.9316C31.2909 10.011 31.5835 10.3046 31.5835 10.667V11.4932C31.5835 11.8557 31.2909 12.1493 30.9316 12.1493H26.867C26.5067 12.1493 26.215 11.8557 26.215 11.4932V10.667ZM19.1436 10.667C19.1436 10.3046 19.4353 10.011 19.7956 10.011H23.8591C24.2194 10.011 24.5111 10.3046 24.5111 10.667V11.4932C24.5111 11.8557 24.2194 12.1493 23.8591 12.1493H19.7956C19.4353 12.1493 19.1436 11.8557 19.1436 11.4932V10.667Z" fill="white"/>
<path d="M21.6694 0.94278L20.7344 6.22041H45.4279L46.2915 1.34516C46.4161 0.643424 45.88 0 45.172 0H22.7879C22.2374 0 21.766 0.397424 21.6694 0.94278ZM37.9093 2.69713C37.9093 2.3347 38.201 2.04107 38.5613 2.04107H42.6258C42.9861 2.04107 43.2778 2.3347 43.2778 2.69713V3.52328C43.2778 3.88582 42.9861 4.17934 42.6258 4.17934H38.5613C38.201 4.17934 37.9093 3.88582 37.9093 3.52328V2.69713ZM30.8378 2.69713C30.8378 2.3347 31.1296 2.04107 31.4898 2.04107H35.5544C35.9137 2.04107 36.2064 2.3347 36.2064 2.69713V3.52328C36.2064 3.88582 35.9137 4.17934 35.5544 4.17934H31.4898C31.1296 4.17934 30.8378 3.88582 30.8378 3.52328V2.69713ZM23.7664 2.69713C23.7664 2.3347 24.0581 2.04107 24.4184 2.04107H28.483C28.8423 2.04107 29.1349 2.3347 29.1349 2.69713V3.52328C29.1349 3.88582 28.8423 4.17934 28.483 4.17934H24.4184C24.0581 4.17934 23.7664 3.88582 23.7664 3.52328V2.69713Z" fill="white"/>
<path d="M52.257 27.433C52.88 27.5944 53.4924 27.7314 54.0922 27.8481C54.6186 27.9502 55.1344 28.0366 55.6377 28.1086C57.2971 28.3458 58.8252 28.4303 60.1591 28.4303C61.5075 28.4303 62.7043 28.3448 63.6866 28.234V25.7235C63.6866 25.1335 63.2114 24.6543 62.6241 24.6543H55.6377V11.8335C55.6377 11.5788 55.4319 11.3718 55.1789 11.3718H54.551C54.2979 11.3718 54.0922 11.5788 54.0922 11.8335V24.6543H52.257V0.947755C52.257 0.693107 52.0512 0.486084 51.7982 0.486084H51.1703C50.9172 0.486084 50.7115 0.693107 50.7115 0.947755V24.6543H49.3592C48.7729 24.6543 48.2967 25.1335 48.2967 25.7235V26.1123C49.111 26.4485 49.9175 26.7392 50.7115 26.9899C51.2331 27.155 51.7479 27.3018 52.257 27.433Z" fill="white"/>
</svg>
